<?xml version="1.0" encoding="UTF-8"?>
<svg width="512" height="512" viewBox="0 0 512 512" fill="none" xmlns="http://www.w3.org/2000/svg">
  <path fill-rule="evenodd" clip-rule="evenodd" d="M256 512C397.385 512 512 397.385 512 256C512 114.615 397.385 0 256 0C114.615 0 0 114.615 0 256C0 397.385 114.615 512 256 512ZM128 160H224V192H128V160ZM224 160H384V192H224V160ZM128 240H224V272H128V240ZM224 240H384V272H224V240ZM128 320H224V352H128V320ZM224 320H384V352H224V320ZM224 176C235.046 176 244 167.046 244 156C244 144.954 235.046 136 224 136C212.954 136 204 144.954 204 156C204 167.046 212.954 176 224 176ZM224 256C235.046 256 244 247.046 244 236C244 224.954 235.046 216 224 216C212.954 216 204 224.954 204 236C204 247.046 212.954 256 224 256ZM224 336C235.046 336 244 327.046 244 316C244 304.954 235.046 296 224 296C212.954 296 204 304.954 204 316C204 327.046 212.954 336 224 336ZM224 176L384 256M384 176L224 256" stroke="currentColor" stroke-width="24" stroke-linecap="round"/>
</svg>
